<?xml version="1.0" encoding="UTF-8"?>
<svg id="Layer_1" xmlns="http://www.w3.org/2000/svg" baseProfile="tiny" version="1.2" viewBox="0 0 557.64 557.64">
  <!-- Generator: Adobe Illustrator 29.6.1, SVG Export Plug-In . SVG Version: 2.1.1 Build 9)  -->
  <path d="M271.87,258.71s-11.1,37.29,21,65.81c4.58,4.07,10.15,7.7,17.19,10.71,0,0,7.09-22.5-5.6-46.46-5.78-10.91-15.37-22.58-32.58-30.07h-.01Z" fill="#2b51a3"/>
  <path d="M281.65,317.5s-17.9,2.48-32-11.14c-5.53-5.34-10.48-12.92-12.02-23.25-2.4-16.07,4.75-31.24,18.17-40.16,10.77-7.15,22.91-6.44,22.91-6.44-29.72,44.37,2.94,80.99,2.94,80.99h0Z" fill="#2b51a3"/>
  <polygon points="237.19 335.28 300.33 335.28 294.72 331.98 237.19 331.98 237.19 335.28" fill="#2b51a3"/>
  <g>
    <rect x="249.97" y="321.54" width="21.66" height="2.79" transform="translate(-99.78 528.56) rotate(-80.77)" fill="#2b51a3"/>
    <rect x="262.16" y="322.48" width="20.16" height="2.79" transform="translate(-91.11 540.64) rotate(-80.77)" fill="#2b51a3"/>
  </g>
  <path d="M287.08,230.43s4.92-.13,9.15.86c2.22.52,6.53,1.41,11.94,4.57,0,0-8.6-1.04-16.32,1.53-10.8,3.6-15.5,8.93-15.5,8.93,0,0,3.57-8.05,10.73-15.89h0Z" fill="#2b51a3"/>
  <g>
    <path d="M267.92,223.58h-2.09s-.21,3.68,1.48,5.97c1.18,1.59,2.33,2.25,5.05,2.65,2.85.42,9.03.33,9.03.33l1.92-2.18h-9.17s-3.61,0-5.33-2.48c-.96-1.39-.9-2.73-.89-4.28h0Z" fill="#2b51a3"/>
    <path d="M279.27,230.36s-3.61,0-5.33-2.5c-.96-1.39-.9-2.73-.89-4.28h-2.09s-.21,3.68,1.48,5.97c1.18,1.59,2.33,2.25,5.05,2.65" fill="#2b51a3"/>
  </g>
</svg>